<?xml version="1.0" standalone="no"?>
<!DOCTYPE svg PUBLIC "-//W3C//DTD SVG 20010904//EN"
 "http://www.w3.org/TR/2001/REC-SVG-20010904/DTD/svg10.dtd">
<svg version="1.0" xmlns="http://www.w3.org/2000/svg"
 width="2000.000000pt" height="1500.000000pt" viewBox="0 0 2000.000000 1500.000000"
 preserveAspectRatio="xMidYMid meet">

<g transform="translate(0.000000,1500.000000) scale(0.100000,-0.100000)"
fill="#000000" stroke="none">
<path d="M12986 8630 c-206 -293 -537 -623 -853 -848 -244 -175 -596 -368
-718 -395 l-60 -14 -3 -72 c-6 -152 59 -423 141 -586 58 -116 105 -181 190
-261 200 -191 443 -209 685 -51 103 67 222 205 222 256 0 20 -28 -1 -41 -31
-17 -41 -94 -118 -152 -152 -99 -58 -181 -79 -312 -80 -113 -1 -123 1 -173 27
-97 51 -179 143 -246 276 -76 149 -165 448 -169 566 l-2 67 90 32 c457 166
1100 705 1426 1196 71 107 85 150 50 150 -13 0 -38 -27 -75 -80z"/>
<path d="M4102 8629 c-164 -12 -315 -57 -431 -127 -85 -51 -185 -152 -218
-221 -59 -119 -28 -260 79 -356 65 -58 138 -99 344 -191 91 -41 205 -94 254
-119 246 -128 313 -331 189 -576 -151 -299 -598 -503 -1026 -468 -459 37 -688
257 -644 616 24 200 96 348 234 485 77 76 86 88 65 88 -33 0 -137 -68 -198
-129 -58 -58 -130 -166 -170 -255 -121 -267 -55 -527 174 -691 187 -133 432
-189 724 -166 283 23 458 80 670 217 174 113 355 324 396 461 37 121 5 258
-80 353 -66 73 -153 126 -445 268 -308 151 -368 193 -409 284 -80 176 80 358
390 443 139 39 321 46 418 16 152 -46 241 -162 218 -283 -11 -58 -53 -97 -126
-117 -45 -13 -66 -23 -68 -36 -3 -14 1 -16 30 -10 64 14 156 65 193 107 117
138 30 322 -182 383 -46 13 -235 37 -268 33 -5 0 -56 -4 -113 -9z"/>
<path d="M11840 8588 c-30 -16 -62 -47 -101 -99 l-58 -75 -233 -17 c-260 -20
-402 -38 -528 -69 -293 -72 -499 -220 -581 -418 -19 -45 -23 -74 -23 -165 -1
-101 1 -115 28 -172 18 -40 48 -81 82 -113 93 -88 181 -113 299 -85 128 29
200 91 264 224 31 66 36 85 35 146 0 66 -22 135 -42 135 -4 0 -6 -31 -4 -70 4
-70 -19 -174 -55 -245 -51 -99 -137 -155 -240 -157 -83 -1 -126 16 -171 68
-124 140 -81 398 96 586 169 179 358 240 905 291 75 7 137 11 137 7 0 -3 -40
-91 -89 -195 -49 -105 -137 -297 -195 -429 -189 -422 -282 -589 -434 -777
-203 -252 -496 -435 -806 -504 -92 -20 -220 -17 -351 9 -226 46 -416 211 -456
397 -17 78 -6 232 20 301 29 76 100 169 167 220 56 42 66 58 37 58 -57 0 -201
-117 -242 -197 -47 -93 -67 -283 -41 -398 26 -114 107 -243 207 -326 65 -54
208 -124 318 -156 132 -37 366 -44 513 -14 192 40 346 110 499 227 158 121
285 292 426 572 94 187 124 262 233 577 89 260 156 430 217 551 l43 89 70 15
c92 21 159 54 189 94 29 38 31 56 10 95 -24 48 -74 54 -145 19z m90 -67 c0
-20 -9 -36 -27 -50 -27 -22 -130 -57 -140 -48 -3 3 22 33 54 66 43 45 66 61
86 61 23 0 27 -4 27 -29z"/>
<path d="M16682 8190 c-98 -22 -196 -150 -328 -427 -75 -157 -161 -371 -203
-507 -63 -203 -250 -476 -325 -476 -46 0 -52 22 -34 126 13 75 28 118 75 216
33 68 77 147 97 177 20 29 36 54 36 56 0 10 -110 11 -135 0 -35 -14 -45 -27
-132 -183 -128 -229 -222 -345 -307 -377 -42 -16 -48 -16 -70 -2 -34 23 -42
81 -21 154 38 129 151 310 270 429 134 135 242 168 306 96 15 -16 29 -36 31
-43 4 -12 7 -12 21 0 24 19 21 33 -10 63 -119 111 -335 76 -496 -80 -64 -62
-156 -201 -190 -285 -77 -192 -50 -364 63 -398 35 -11 44 -9 92 14 63 31 126
93 203 201 l56 80 -8 -55 c-20 -136 -2 -197 71 -233 32 -16 44 -17 76 -7 55
16 122 81 191 184 34 51 62 93 63 94 1 1 2 -39 1 -90 0 -73 4 -98 19 -123 38
-64 121 -88 207 -60 77 26 123 59 187 137 l57 70 5 -58 c8 -88 41 -136 107
-157 67 -21 184 66 289 215 30 44 57 79 59 79 1 0 -1 -17 -6 -37 -5 -21 -9
-67 -9 -103 0 -79 24 -124 77 -147 74 -31 161 26 261 170 61 88 152 257 152
282 0 32 -26 -2 -81 -103 -96 -182 -196 -302 -251 -302 -20 0 -31 6 -36 21
-11 30 5 150 28 209 30 76 114 239 153 298 l36 52 -47 2 c-112 4 -119 -2 -228
-192 -132 -232 -210 -332 -289 -370 -85 -41 -121 -10 -113 100 6 80 45 168
139 309 107 162 244 282 342 298 47 7 101 -18 118 -56 16 -35 21 -37 39 -16
17 21 5 47 -38 76 -73 51 -142 61 -241 34 -168 -44 -306 -175 -402 -381 -69
-147 -82 -171 -139 -257 -66 -97 -118 -138 -179 -139 -31 0 -49 6 -67 23 -53
49 -54 140 -5 298 25 80 33 93 95 157 191 195 423 588 464 782 15 74 15 79 -4
117 -22 44 -44 55 -92 45z m54 -105 c26 -105 -184 -508 -394 -758 -36 -42 -67
-75 -69 -73 -14 14 244 577 323 708 39 65 110 148 125 148 5 0 11 -11 15 -25z"/>
<path d="M13872 8166 c-18 -16 -48 -69 -82 -143 -29 -65 -97 -207 -152 -315
l-99 -197 -47 20 c-56 25 -167 27 -228 5 -162 -57 -250 -151 -382 -409 -75
-147 -141 -246 -204 -309 -32 -32 -45 -39 -71 -36 -31 3 -32 5 -35 53 -2 28 2
76 9 108 13 64 117 283 172 365 l36 52 -47 2 c-112 4 -119 -2 -228 -192 -132
-232 -210 -332 -289 -370 -85 -41 -121 -10 -113 100 6 80 45 168 139 309 107
162 244 282 342 298 47 7 101 -18 118 -56 16 -35 21 -37 39 -16 17 21 5 47
-38 76 -73 51 -142 61 -241 34 -122 -32 -221 -104 -309 -222 -102 -139 -152
-272 -152 -407 0 -109 32 -166 107 -190 67 -21 184 66 289 215 30 44 57 79 59
79 1 0 -1 -17 -6 -37 -16 -70 -11 -165 11 -201 29 -47 82 -68 133 -52 51 15
123 83 184 172 l48 70 5 -68 c7 -85 31 -128 85 -154 107 -52 209 5 321 179 21
34 41 61 44 61 3 0 3 -25 2 -56 -6 -84 5 -120 47 -164 33 -35 44 -40 81 -40
78 0 153 52 240 168 l25 34 2 -45 c3 -98 58 -157 146 -157 84 0 158 56 240
180 27 41 47 64 43 50 -27 -101 -11 -165 53 -207 97 -65 215 7 342 210 47 76
51 79 44 43 -3 -21 -6 -73 -6 -114 0 -63 4 -81 26 -113 29 -45 84 -64 149 -53
174 29 301 214 445 646 57 172 60 201 21 206 -65 7 -140 -90 -161 -209 -10
-58 -10 -76 6 -136 l18 -69 -45 -96 c-98 -206 -197 -308 -301 -308 -33 0 -67
45 -67 90 0 43 51 211 100 329 45 111 139 272 182 314 l39 37 -75 0 c-41 0
-85 -5 -98 -11 -17 -7 -56 -76 -140 -242 -130 -260 -211 -389 -286 -460 -59
-55 -90 -60 -121 -21 -25 32 -27 81 -6 150 25 85 209 445 263 517 l51 67 -79
0 c-68 0 -82 -3 -104 -22 -13 -13 -79 -129 -147 -258 -167 -322 -227 -414
-298 -457 -58 -36 -113 -26 -131 23 -16 41 4 103 126 392 95 223 114 275 104
287 -9 11 -34 15 -92 15 -72 0 -79 -2 -73 -17 4 -10 10 -28 12 -40 6 -27 -84
-261 -144 -373 -133 -248 -238 -345 -303 -280 -57 57 3 228 248 695 178 341
331 613 371 658 22 26 1 37 -76 37 -51 0 -67 -4 -91 -24z m-377 -668 c32 -14
34 -7 -67 -188 -97 -174 -214 -356 -273 -426 -89 -103 -176 -121 -203 -40 -45
139 165 488 379 626 66 43 114 51 164 28z"/>
<path d="M6088 8135 c-15 -8 -40 -34 -56 -58 -42 -61 -224 -410 -412 -789
-168 -340 -224 -428 -310 -486 -48 -33 -129 -27 -167 11 l-27 26 52 54 c69 73
125 162 164 261 28 71 32 93 32 176 1 83 -2 100 -23 137 -67 117 -234 95 -390
-52 -90 -85 -156 -184 -200 -300 -43 -112 -49 -233 -16 -300 47 -93 148 -112
273 -50 l70 35 49 -26 c65 -35 151 -31 212 9 22 15 43 27 46 27 3 0 -4 -18
-15 -40 -11 -21 -20 -42 -20 -46 0 -6 103 4 126 13 7 3 32 39 54 81 105 196
276 408 388 482 61 40 108 39 105 -3 -1 -15 -31 -78 -67 -140 -74 -129 -96
-188 -103 -272 -3 -47 0 -68 15 -94 35 -64 121 -88 197 -57 48 20 124 94 160
155 17 28 33 51 38 51 4 0 7 -21 7 -47 0 -56 29 -120 68 -148 33 -24 94 -25
140 -1 47 24 139 121 196 205 26 40 50 71 51 69 2 -2 -1 -24 -6 -48 -15 -66
-7 -160 16 -192 28 -39 79 -61 118 -52 34 7 127 69 127 85 0 5 5 9 10 9 6 0
-1 -23 -16 -52 l-26 -51 66 6 c37 4 71 9 77 12 5 4 23 34 40 68 78 154 184
303 289 406 88 85 144 123 178 119 45 -5 40 -38 -24 -149 -79 -140 -106 -211
-111 -294 -5 -83 13 -121 70 -148 99 -47 195 0 294 144 l48 71 6 -58 c9 -91
52 -154 116 -170 68 -17 186 75 287 224 27 39 51 70 53 68 2 -2 -2 -27 -8 -56
-15 -68 -7 -144 18 -178 28 -38 86 -65 123 -57 51 11 123 77 189 174 103 151
186 324 141 296 -4 -3 -32 -49 -60 -103 -105 -196 -202 -312 -260 -312 -23 0
-31 5 -36 26 -22 87 57 306 180 498 l34 54 -51 5 c-63 6 -107 -10 -134 -49
-11 -16 -46 -76 -78 -134 -118 -212 -223 -346 -300 -381 -52 -24 -61 -24 -90
6 -30 29 -33 76 -9 156 22 74 51 129 133 251 114 170 266 298 356 298 39 0 93
-33 105 -65 13 -33 42 -23 38 14 -4 35 -83 88 -145 97 -110 16 -270 -46 -367
-142 -71 -72 -155 -199 -191 -289 -49 -125 -159 -286 -224 -331 -41 -27 -83
-31 -101 -9 -19 23 -13 97 15 181 28 82 133 305 209 441 25 45 42 84 37 87
-12 8 -106 -21 -162 -49 -113 -58 -229 -148 -338 -261 -61 -64 -111 -113 -111
-110 0 11 130 247 163 296 17 25 45 64 63 87 l34 41 -51 7 c-99 14 -116 -5
-273 -304 -157 -298 -254 -425 -321 -419 l-30 3 2 80 c1 58 8 98 26 145 33 87
90 200 143 283 l44 67 -43 2 c-115 5 -121 1 -219 -172 -97 -172 -146 -245
-207 -312 -121 -133 -221 -122 -208 23 13 148 215 451 372 559 94 64 187 62
226 -5 23 -38 49 -38 49 1 0 53 -119 109 -216 100 -207 -18 -388 -180 -499
-446 -69 -167 -194 -332 -261 -346 -69 -14 -83 60 -37 199 25 75 163 365 229
479 15 27 25 51 22 54 -18 18 -200 -62 -310 -137 -72 -49 -165 -135 -240 -222
-32 -37 -58 -62 -58 -56 0 7 50 109 112 228 200 387 371 692 443 785 29 39 32
46 16 46 -10 0 -38 2 -62 5 -29 4 -53 0 -71 -10z m-823 -665 c59 -22 70 -144
25 -274 -24 -70 -110 -236 -122 -236 -5 0 -7 9 -3 20 4 13 -2 28 -19 45 -42
42 -96 29 -115 -26 -16 -45 -13 -78 8 -126 l19 -41 -41 -28 c-22 -15 -60 -29
-83 -32 -36 -4 -47 0 -68 21 -23 23 -26 34 -26 92 0 181 182 504 322 574 48
24 65 25 103 11z"/>
<path d="M13998 7784 c-30 -16 -58 -61 -58 -92 0 -11 9 -31 21 -46 46 -58 153
-16 166 66 11 69 -61 109 -129 72z"/>
</g>
</svg>
