<svg id="svg" version="1.1" xmlns="http://www.w3.org/2000/svg" xmlns:xlink="http://www.w3.org/1999/xlink" width="400" height="300" viewBox="0, 0, 400,300"><g id="svgg"><path id="path0" d="M0.000 150.000 L 0.000 300.000 200.000 300.000 L 400.000 300.000 400.000 150.000 L 400.000 0.000 200.000 0.000 L 0.000 0.000 0.000 150.000 M316.600 149.900 L 316.600 172.800 310.200 172.800 L 303.800 172.800 303.800 149.900 L 303.800 127.000 310.200 127.000 L 316.600 127.000 316.600 149.900 M331.800 149.900 L 331.800 172.800 325.500 172.800 L 319.200 172.800 319.200 149.900 L 319.200 127.000 325.500 127.000 L 331.800 127.000 331.800 149.900 M347.000 149.900 L 347.000 172.800 340.700 172.800 L 334.400 172.800 334.400 149.900 L 334.400 127.000 340.700 127.000 L 347.000 127.000 347.000 149.900 " stroke="none" fill="#fcfcfc" fill-rule="evenodd"></path><path id="path1" d="M304.000 149.900 L 304.000 172.800 310.200 172.800 L 316.400 172.800 316.400 149.900 L 316.400 127.000 310.200 127.000 L 304.000 127.000 304.000 149.900 M319.200 149.900 L 319.200 172.800 325.400 172.800 L 331.600 172.800 331.600 149.900 L 331.600 127.000 325.400 127.000 L 319.200 127.000 319.200 149.900 " stroke="none" fill="#d7d7df" fill-rule="evenodd"></path><path id="path2" d="M303.897 149.900 C 303.897 162.550,303.921 167.696,303.950 161.335 C 303.979 154.974,303.979 144.624,303.950 138.335 C 303.921 132.046,303.897 137.250,303.897 149.900 M331.697 149.900 C 331.697 162.550,331.721 167.696,331.750 161.335 C 331.779 154.974,331.779 144.624,331.750 138.335 C 331.721 132.046,331.697 137.250,331.697 149.900 M334.600 149.900 L 334.600 172.800 340.800 172.800 L 347.000 172.800 347.000 149.900 L 347.000 127.000 340.800 127.000 L 334.600 127.000 334.600 149.900 " stroke="none" fill="#e4ecec" fill-rule="evenodd"></path><path id="path3" d="" stroke="none" fill="#f0f8100" fill-rule="evenodd"></path><path id="path4" d="" stroke="none" fill="#f0f8100" fill-rule="evenodd"></path></g></svg>